<?xml version="1.0" encoding="UTF-8" standalone="no"?>
<!DOCTYPE svg PUBLIC "-//W3C//DTD SVG 1.1//EN" "http://www.w3.org/Graphics/SVG/1.1/DTD/svg11.dtd">
<svg width="100%" height="100%" viewBox="0 0 25 42" version="1.1" xmlns="http://www.w3.org/2000/svg" xmlns:xlink="http://www.w3.org/1999/xlink" xml:space="preserve" xmlns:serif="http://www.serif.com/" style="fill-rule:evenodd;clip-rule:evenodd;stroke-linejoin:round;stroke-miterlimit:2;">
    <g transform="matrix(1,0,0,1,-249.474383,-416.510884)">
        <g transform="matrix(1,0,0,1,-78.699625,48.436437)">
            <g transform="matrix(0.309263,0,0,0.421666,199.670045,324.919325)">
                <path d="M453.43,128.725C453.46,130.784 453.47,137.412 461.556,149.873C462.96,152.036 464.542,153.277 465.295,154.42L466.728,158.028L466.558,161.037L465.382,163.685L462.832,166.654C456.245,172.767 455.761,177.553 455.792,182.812C455.809,185.886 455.974,189.086 455.734,192.61C455.465,196.558 451.225,199.739 445.85,200.025C440.475,200.312 435.652,197.613 434.608,193.735C430.131,177.098 431.081,176.135 418.08,164.992C415.118,162.452 414.68,158.814 416.991,155.934C423.955,147.256 424.658,147.75 427.025,142.637C429.477,137.338 430.07,127.29 431.085,124.944L432.941,122.234L436.245,120.063L438.878,119.256L442.111,118.986L445.202,119.406L447.556,120.237L450.954,122.736L452.137,124.457C452.442,125.033 452.815,125.905 453.182,127.131C453.339,127.655 453.422,128.189 453.43,128.725ZM441.892,155.988C441.164,156.859 440.302,157.877 439.248,159.143C440.153,159.956 440.985,160.724 441.754,161.456C442.447,160.634 443.208,159.796 444.042,158.941C443.426,158.195 442.783,157.365 442.286,156.599C442.153,156.394 442.022,156.19 441.892,155.988Z" style="fill:currentColor;"/>
            </g>
            <g transform="matrix(0.58783,0,0,0.707536,59.150044,235.771065)">
                <path d="M488.021,191.656C487.875,194.353 487.906,196.398 484.213,203.044C489.4,205.783 489.203,205.55 490.651,211.486C491.025,207.101 489.888,204.256 494.083,201.188C491.617,199.325 490.581,199.055 489.389,195.637C487.849,191.22 488.124,192.225 488.021,191.656Z" style="fill:currentColor;"/>
                <path d="M493.563,190.915C493.71,191.312 494.087,192.35 494.781,194.338C495.528,196.482 496.313,196.569 497.859,197.736C499.041,198.629 499.709,199.898 499.696,201.225C499.683,202.552 498.991,203.812 497.792,204.688C496.373,205.726 496.405,206.772 496.377,207.996C496.35,209.155 496.371,210.411 496.251,211.815C496.052,214.142 493.815,215.989 491.014,216.14C488.212,216.291 485.707,214.698 485.149,212.412C484.824,211.079 484.591,210.079 484.352,209.292C484.279,209.053 484.153,208.736 484.097,208.599C483.805,208.428 482.495,207.663 481.201,206.98C478.828,205.727 477.937,203.209 479.116,201.089C482.248,195.453 482.289,193.734 482.413,191.447C482.542,189.049 484.841,187.124 487.726,186.998C490.593,186.873 493.108,188.564 493.563,190.915Z" style="fill:currentColor;"/>
            </g>
        </g>
    </g>
</svg>
